<svg width="32" height="32" viewBox="0 0 32 32" fill="none" xmlns="http://www.w3.org/2000/svg"><path d="M9.40527 19.3845V18.53L9.91309 18.4568L12.1738 12.2751H13.6338L15.8799 18.4568L16.3877 18.53V19.3845H13.9658V18.53L14.459 18.4421L14.1465 17.4656H11.6465L11.334 18.4421L11.8271 18.53V19.3845H9.40527ZM11.9834 16.4158H13.8096L12.9795 13.9792L12.9111 13.7644H12.8818L12.8086 13.9939L11.9834 16.4158ZM16.8613 19.3845V18.53L17.6279 18.3689V13.3005L16.8613 13.1345V12.2751H17.6279H19.9814C20.6162 12.2751 21.1761 12.4249 21.6611 12.7244C22.1462 13.0206 22.5238 13.4324 22.7939 13.9597C23.0674 14.4838 23.2041 15.086 23.2041 15.7664V15.8982C23.2041 16.572 23.069 17.1726 22.7988 17.7C22.5319 18.224 22.1576 18.6358 21.6758 18.9353C21.194 19.2348 20.6357 19.3845 20.001 19.3845H16.8613ZM19.0537 18.2957H19.9277C20.3216 18.2957 20.6553 18.1931 20.9287 17.988C21.2021 17.7797 21.4105 17.4949 21.5537 17.1335C21.7002 16.7722 21.7734 16.3604 21.7734 15.8982V15.7615C21.7734 15.2927 21.7002 14.8793 21.5537 14.5212C21.4105 14.1599 21.2021 13.8783 20.9287 13.6765C20.6553 13.4714 20.3216 13.3689 19.9277 13.3689H19.0537V18.2957Z" fill="white"></path><rect x="0.5" y="0.5" width="31" height="31" rx="7.5" stroke="white"></rect><rect x="5.4231" y="5.4231" width="21.1538" height="21.1538" rx="10.5769" stroke="white"></rect><line x1="23.3279" y1="8.73807" x2="8.55869" y2="23.5073" stroke="white"></line></svg>
